M48
METRIC,TZ
T1C0.300
T2C0.400
T3C0.500
T4C0.813
T5C1.000
T6C1.300
T7C2.400
T8C4.700
%
G90
G05
T1
X90000Y-47700
X90275Y-58285
X90300Y-59100
X90500Y-62400
X93200Y-92400
X95100Y-44200
X96050Y-67806
X96100Y-51390
X96700Y-67800
X96900Y-44966
X96900Y-48800
X100400Y-50046
X100400Y-68800
X101700Y-53930
X102200Y-130700
X102675Y-57666
X103000Y-68800
X103100Y-67900
X103175Y-60206
X103700Y-62746
X103900Y-136900
X104200Y-101000
X104300Y-64575
X105000Y-66000
X105328Y-67072
X105600Y-51400
X105600Y-65200
X105700Y-56700
X105700Y-44000
X105700Y-59000
X105700Y-61900
X105700Y-64000
X105700Y-41600
X105700Y-54200
X107200Y-117100
X108300Y-99800
X109600Y-92500
X109800Y-76200
X109900Y-80600
X110300Y-64100
X112300Y-64100
X112300Y-83000
X112400Y-44900
X112400Y-102000
X113200Y-131700
X121900Y-120900
X123300Y-53500
X123300Y-91500
X123300Y-110500
X123300Y-72600
X127400Y-52300
X127400Y-71400
X127400Y-90400
X127400Y-109400
X128500Y-44900
X128600Y-102000
X128700Y-64000
X128700Y-83000
X131300Y-80600
X131300Y-100400
X131400Y-42500
X131400Y-62200
X132800Y-129400
X136900Y-128300
X138000Y-120900
X140800Y-118700
X142300Y-89300
X142300Y-51000
X142300Y-108300
X142300Y-70200
X146400Y-49900
X146400Y-69000
X146400Y-88000
X146400Y-107100
X147500Y-61600
X147600Y-42500
X147600Y-99700
X147800Y-80600
X150300Y-98300
X150400Y-79300
X150500Y-41100
X150600Y-60200
X151800Y-127100
X155900Y-126100
X157100Y-118700
X159900Y-118700
X161400Y-68700
X161400Y-49600
X161400Y-87800
X161400Y-106900
X165500Y-48500
X165500Y-67600
X165500Y-86700
X165500Y-105700
X166600Y-60200
X166700Y-41100
X166800Y-79300
X166800Y-98300
X169400Y-42500
X169400Y-99700
X169500Y-61500
X169500Y-80600
X170900Y-127300
X175000Y-126000
X176200Y-118700
X180400Y-108200
X180400Y-51000
X180400Y-70000
X180400Y-89100
X184500Y-49900
X184500Y-68900
X184500Y-88000
X184500Y-107100
X185600Y-61500
X185600Y-99700
X185700Y-42500
X185900Y-80600
X188500Y-85400
X188500Y-104400
X188600Y-47300
X188600Y-66200
X199500Y-55800
X199500Y-93900
X199500Y-74700
X199500Y-113100
X203600Y-54700
X203600Y-73600
X203600Y-92800
X203600Y-111800
X204700Y-47300
X204700Y-66200
X204900Y-85400
X204900Y-104400
X207200Y-48800
X207500Y-105900
X207600Y-67700
X207600Y-86900
X218500Y-57200
X218500Y-76200
X218500Y-95300
X218500Y-114600
X222600Y-56200
X222600Y-75100
X222600Y-94300
X222600Y-113300
X223700Y-48800
X223700Y-67700
X223900Y-86900
X223900Y-105900
T2
X220100Y-61800
X223500Y-61800
X133600Y-58700
X137000Y-58700
X132600Y-55700
X136000Y-55700
X150800Y-54200
X154200Y-54200
X112700Y-58000
X116100Y-58000
X169800Y-55600
X173200Y-55600
X188900Y-60400
X192300Y-60400
X112700Y-61100
X116100Y-61100
X150900Y-57400
X154300Y-57400
X169800Y-58700
X173200Y-58700
X133600Y-96800
X137000Y-96800
X188900Y-101500
X192300Y-101500
X169800Y-96800
X173200Y-96800
X160300Y-115800
X163700Y-115800
X112700Y-99100
X116100Y-99100
X188900Y-63300
X192300Y-63300
X132600Y-93800
X136000Y-93800
X112700Y-96000
X116100Y-96000
X220200Y-103100
X223600Y-103100
X220100Y-64900
X223500Y-64900
X220100Y-99900
X223500Y-99900
X122200Y-118000
X125600Y-118000
X141200Y-115800
X144600Y-115800
X188900Y-98300
X192300Y-98300
X150800Y-92300
X154200Y-92300
X169800Y-93600
X173200Y-93600
X150800Y-95400
X154200Y-95400
X103900Y-89500
X107300Y-89500
X108950Y-117828
X110650Y-120772
T4
X86900Y-60700
X84688Y-53499
X84688Y-58579
X92180Y-41230
X92180Y-43770
X92180Y-46310
X92180Y-48850
X92180Y-51390
X92180Y-53930
X92180Y-56470
X92180Y-59010
X92180Y-61550
X92180Y-64090
X92180Y-66630
X92180Y-69170
X93479Y-42426
X93479Y-44966
X93479Y-47506
X93479Y-50046
X93479Y-52586
X93479Y-55126
X93479Y-57666
X93479Y-60206
X93479Y-62746
X93479Y-65286
X93479Y-67826
X93479Y-70366
X107420Y-41230
X107420Y-43770
X107420Y-46310
X107420Y-48850
X107420Y-51390
X107420Y-53930
X107420Y-56470
X107420Y-59010
X107420Y-61550
X107420Y-64090
X107420Y-66630
X107420Y-69170
X108719Y-42426
X108719Y-44966
X108719Y-47506
X108719Y-50046
X108719Y-52586
X108719Y-55126
X108719Y-57666
X108719Y-60206
X108719Y-62746
X108719Y-65286
X108719Y-67826
X108719Y-70366
X84700Y-60700
X86938Y-53499
X86938Y-58579
X96700Y-74600
X99240Y-74600
X101780Y-74600
X104320Y-74600
T5
X112700Y-76500
X112700Y-78600
X112700Y-80600
T6
X85000Y-64450
X85000Y-70950
T7
X86000Y-85000
X108000Y-85000
T8
X105000Y-114800
X205800Y-61800
X129600Y-97600
X205800Y-100000
X129600Y-59600
T3
G00X84050Y-42050
M15
G01X84050Y-43150
M16
G05
G00X84050Y-45050
M15
G01X84050Y-46150
M16
G05
G00X84050Y-49050
M15
G01X84050Y-50150
M16
G05
G00X85800Y-50550
M15
G01X85800Y-51650
M16
G05
G00X88250Y-50550
M15
G01X88250Y-51650
M16
G05
G00X90000Y-42050
M15
G01X90000Y-43150
M16
G05
G00X90000Y-45050
M15
G01X90000Y-46150
M16
G05
G00X90000Y-49050
M15
G01X90000Y-50150
M16
G05
T0
M30
