M48
METRIC,TZ
T1C0.100
T2C1.200
T3C1.700
T4C1.900
T5C3.000
T6C4.000
%
G90
G05
T1
X173775Y-83120
X181425Y-83120
X116675Y-85520
X124325Y-85520
X173775Y-64020
X181425Y-64020
X145175Y-121170
X152825Y-121170
X192875Y-106920
X200525Y-106920
X173775Y-102220
X181425Y-102220
X105322Y-122397
X109147Y-129023
X116675Y-104520
X124325Y-104520
X164275Y-121170
X171925Y-121170
X211875Y-89420
X219525Y-89420
X211875Y-70220
X219525Y-70220
X211925Y-108420
X219575Y-108420
X97575Y-94920
X105225Y-94920
X154775Y-100820
X162425Y-100820
X154775Y-81820
X162425Y-81820
X126175Y-123420
X133825Y-123420
X135675Y-102220
X143325Y-102220
X192875Y-87920
X200525Y-87920
X135675Y-83120
X143325Y-83120
X192875Y-68720
X200525Y-68720
X135675Y-64120
X143325Y-64120
X154775Y-62720
X162425Y-62720
X116675Y-66520
X124325Y-66520
X211875Y-51320
X219525Y-51320
X192875Y-49820
X200525Y-49820
X173775Y-45020
X181425Y-45020
X154775Y-43630
X162425Y-43630
X116675Y-47420
X124325Y-47420
X135675Y-45020
X143325Y-45020
T2
X86150Y-40800
X86150Y-47800
X87900Y-40800
X87900Y-47800
T3
X172520Y-85700
X182680Y-85700
X115420Y-88100
X125580Y-88100
X172520Y-66600
X182680Y-66600
X143920Y-123750
X154080Y-123750
X191620Y-109500
X201780Y-109500
X172520Y-104800
X182680Y-104800
X102460Y-122601
X107540Y-131399
X115420Y-107100
X125580Y-107100
X163020Y-123750
X173180Y-123750
X210620Y-92000
X220780Y-92000
X210620Y-72800
X220780Y-72800
X210670Y-111000
X220830Y-111000
X96320Y-97500
X106480Y-97500
X153520Y-103400
X163680Y-103400
X153520Y-84400
X163680Y-84400
X124920Y-126000
X135080Y-126000
X134420Y-104800
X144580Y-104800
X191620Y-90500
X201780Y-90500
X134420Y-85700
X144580Y-85700
X191620Y-71300
X201780Y-71300
X134420Y-66700
X144580Y-66700
X153520Y-65300
X163680Y-65300
X115420Y-69100
X125580Y-69100
X210620Y-53900
X220780Y-53900
X191620Y-52400
X201780Y-52400
X172520Y-47600
X182680Y-47600
X153520Y-46210
X163680Y-46210
X115420Y-50000
X125580Y-50000
X134420Y-47600
X144580Y-47600
T4
X172100Y-85700
X183100Y-85700
X115000Y-88100
X126000Y-88100
X172100Y-66600
X183100Y-66600
X143500Y-123750
X154500Y-123750
X191200Y-109500
X202200Y-109500
X172100Y-104800
X183100Y-104800
X102250Y-122237
X107750Y-131763
X115000Y-107100
X126000Y-107100
X162600Y-123750
X173600Y-123750
X210200Y-92000
X221200Y-92000
X210200Y-72800
X221200Y-72800
X210250Y-111000
X221250Y-111000
X95900Y-97500
X106900Y-97500
X153100Y-103400
X164100Y-103400
X153100Y-84400
X164100Y-84400
X124500Y-126000
X135500Y-126000
X134000Y-104800
X145000Y-104800
X191200Y-90500
X202200Y-90500
X134000Y-85700
X145000Y-85700
X191200Y-71300
X202200Y-71300
X134000Y-66700
X145000Y-66700
X153100Y-65300
X164100Y-65300
X115000Y-69100
X126000Y-69100
X210200Y-53900
X221200Y-53900
X191200Y-52400
X202200Y-52400
X172100Y-47600
X183100Y-47600
X153100Y-46210
X164100Y-46210
X115000Y-50000
X126000Y-50000
X134000Y-47600
X145000Y-47600
T5
X172600Y-89400
X173790Y-83160
X175060Y-80620
X177600Y-91600
X180140Y-80620
X181410Y-83160
X181410Y-83160
X182600Y-89400
X115500Y-91800
X116690Y-85560
X117960Y-83020
X120500Y-94000
X123040Y-83020
X124310Y-85560
X124310Y-85560
X125500Y-91800
X172600Y-70300
X173790Y-64060
X175060Y-61520
X177600Y-72500
X180140Y-61520
X181410Y-64060
X181410Y-64060
X182600Y-70300
X144000Y-127450
X145190Y-121210
X146460Y-118670
X149000Y-129650
X151540Y-118670
X152810Y-121210
X152810Y-121210
X154000Y-127450
X191700Y-113200
X192890Y-106960
X194160Y-104420
X196700Y-115400
X199240Y-104420
X200510Y-106960
X200510Y-106960
X201700Y-113200
X172600Y-108500
X173790Y-102260
X175060Y-99720
X177600Y-110700
X180140Y-99720
X181410Y-102260
X181410Y-102260
X182600Y-108500
X99296Y-124520
X99890Y-129950
X104296Y-133180
X105295Y-122430
X108129Y-122260
X109105Y-129030
X109105Y-129030
X110669Y-126660
X115500Y-110800
X116690Y-104560
X117960Y-102020
X120500Y-113000
X123040Y-102020
X124310Y-104560
X124310Y-104560
X125500Y-110800
X163100Y-127450
X164290Y-121210
X165560Y-118670
X168100Y-129650
X170640Y-118670
X171910Y-121210
X171910Y-121210
X173100Y-127450
X210700Y-95700
X211890Y-89460
X213160Y-86920
X215700Y-97900
X218240Y-86920
X219510Y-89460
X219510Y-89460
X220700Y-95700
X210700Y-76500
X211890Y-70260
X213160Y-67720
X215700Y-78700
X218240Y-67720
X219510Y-70260
X219510Y-70260
X220700Y-76500
X210750Y-114700
X211940Y-108460
X213210Y-105920
X215750Y-116900
X218290Y-105920
X219560Y-108460
X219560Y-108460
X220750Y-114700
X96400Y-101200
X97590Y-94960
X98860Y-92420
X101400Y-103400
X103940Y-92420
X105210Y-94960
X105210Y-94960
X106400Y-101200
X153600Y-107100
X154790Y-100860
X156060Y-98320
X158600Y-109300
X161140Y-98320
X162410Y-100860
X162410Y-100860
X163600Y-107100
X153600Y-88100
X154790Y-81860
X156060Y-79320
X158600Y-90300
X161140Y-79320
X162410Y-81860
X162410Y-81860
X163600Y-88100
X125000Y-129700
X126190Y-123460
X127460Y-120920
X130000Y-131900
X132540Y-120920
X133810Y-123460
X133810Y-123460
X135000Y-129700
X134500Y-108500
X135690Y-102260
X136960Y-99720
X139500Y-110700
X142040Y-99720
X143310Y-102260
X143310Y-102260
X144500Y-108500
X191700Y-94200
X192890Y-87960
X194160Y-85420
X196700Y-96400
X199240Y-85420
X200510Y-87960
X200510Y-87960
X201700Y-94200
X134500Y-89400
X135690Y-83160
X136960Y-80620
X139500Y-91600
X142040Y-80620
X143310Y-83160
X143310Y-83160
X144500Y-89400
X191700Y-75000
X192890Y-68760
X194160Y-66220
X196700Y-77200
X199240Y-66220
X200510Y-68760
X200510Y-68760
X201700Y-75000
X134500Y-70400
X135690Y-64160
X136960Y-61620
X139500Y-72600
X142040Y-61620
X143310Y-64160
X143310Y-64160
X144500Y-70400
X153600Y-69000
X154790Y-62760
X156060Y-60220
X158600Y-71200
X161140Y-60220
X162410Y-62760
X162410Y-62760
X163600Y-69000
X115500Y-72800
X116690Y-66560
X117960Y-64020
X120500Y-75000
X123040Y-64020
X124310Y-66560
X124310Y-66560
X125500Y-72800
X210700Y-57600
X211890Y-51360
X213160Y-48820
X215700Y-59800
X218240Y-48820
X219510Y-51360
X219510Y-51360
X220700Y-57600
X191700Y-56100
X192890Y-49860
X194160Y-47320
X196700Y-58300
X199240Y-47320
X200510Y-49860
X200510Y-49860
X201700Y-56100
X172600Y-51300
X173790Y-45060
X175060Y-42520
X177600Y-53500
X180140Y-42520
X181410Y-45060
X181410Y-45060
X182600Y-51300
X153600Y-49910
X154790Y-43670
X156060Y-41130
X158600Y-52110
X161140Y-41130
X162410Y-43670
X162410Y-43670
X163600Y-49910
X115500Y-53700
X116690Y-47460
X117960Y-44920
X120500Y-55900
X123040Y-44920
X124310Y-47460
X124310Y-47460
X125500Y-53700
X134500Y-51300
X135690Y-45060
X136960Y-42520
X139500Y-53500
X142040Y-42520
X143310Y-45060
X143310Y-45060
X144500Y-51300
T6
X177600Y-85700
X120500Y-88100
X177600Y-66600
X149000Y-123750
X196700Y-109500
X177600Y-104800
X105000Y-127000
X120500Y-107100
X168100Y-123750
X215700Y-92000
X215700Y-72800
X215750Y-111000
X101400Y-97500
X158600Y-103400
X158600Y-84400
X130000Y-126000
X139500Y-104800
X196700Y-90500
X139500Y-85700
X196700Y-71300
X139500Y-66700
X158600Y-65300
X120500Y-69100
X215700Y-53900
X196700Y-52400
X177600Y-47600
X158600Y-46210
X120500Y-50000
X139500Y-47600
T0
M30
